<?xml version="1.0" standalone="no"?>
<!DOCTYPE svg PUBLIC "-//W3C//DTD SVG 20010904//EN"
 "http://www.w3.org/TR/2001/REC-SVG-20010904/DTD/svg10.dtd">
<svg version="1.0" xmlns="http://www.w3.org/2000/svg"
 width="300.000000pt" height="300.000000pt" viewBox="0 0 300.000000 300.000000"
 preserveAspectRatio="xMidYMid meet">
<metadata>
Created by potrace 1.11, written by Peter Selinger 2001-2013
</metadata>
<g transform="translate(0.000000,300.000000) scale(0.100000,-0.100000)"
fill="#000000" stroke="none">
<path d="M1255 2884 c-191 -33 -415 -128 -577 -244 -104 -74 -264 -237 -335
-340 -109 -160 -196 -374 -227 -559 -21 -124 -21 -358 0 -482 33 -196 121
-408 242 -578 74 -105 237 -265 342 -338 160 -109 374 -196 559 -227 124 -21
358 -21 482 0 196 33 408 121 578 242 92 65 291 260 291 285 0 15 -134 100
-157 100 -7 0 -11 3 -8 5 5 5 -87 63 -235 147 -47 26 -92 53 -101 58 -13 8
-32 -3 -90 -52 -89 -75 -242 -152 -349 -176 -96 -21 -244 -21 -340 0 -106 23
-260 101 -347 175 -40 33 -73 65 -73 69 0 5 -16 25 -35 46 -48 50 -130 222
-150 315 -21 96 -21 244 0 340 9 41 38 120 65 175 84 172 193 281 365 365 150
73 296 96 465 75 53 -6 57 -5 67 18 11 24 215 355 280 455 19 29 33 55 31 57
-11 11 -178 55 -257 69 -117 20 -373 20 -486 0z"/>
</g>
</svg>
